<svg width="32" height="32" viewBox="0 0 32 32" xmlns="http://www.w3.org/2000/svg">
  <defs>
    <linearGradient id="petalGradient" x1="0%" y1="0%" x2="100%" y2="100%">
      <stop offset="0%" style="stop-color:#81c784;stop-opacity:1" />
      <stop offset="100%" style="stop-color:#4caf50;stop-opacity:1" />
    </linearGradient>
    <radialGradient id="centerGradient" cx="50%" cy="50%" r="50%">
      <stop offset="0%" style="stop-color:#2d5016;stop-opacity:1" />
      <stop offset="100%" style="stop-color:#1a3d1a;stop-opacity:1" />
    </radialGradient>
  </defs>
  
  <!-- Background circle -->
  <circle cx="16" cy="16" r="15" fill="rgba(255,255,255,0.1)" stroke="rgba(129,199,132,0.3)" stroke-width="1"/>
  
  <!-- Lotus petals (8 petals) -->
  <g>
    <ellipse cx="16" cy="6" rx="2" ry="7" fill="url(#petalGradient)" transform="rotate(0 16 16)"/>
    <ellipse cx="16" cy="6" rx="2" ry="7" fill="url(#petalGradient)" transform="rotate(45 16 16)"/>
    <ellipse cx="16" cy="6" rx="2" ry="7" fill="url(#petalGradient)" transform="rotate(90 16 16)"/>
    <ellipse cx="16" cy="6" rx="2" ry="7" fill="url(#petalGradient)" transform="rotate(135 16 16)"/>
    <ellipse cx="16" cy="6" rx="2" ry="7" fill="url(#petalGradient)" transform="rotate(180 16 16)"/>
    <ellipse cx="16" cy="6" rx="2" ry="7" fill="url(#petalGradient)" transform="rotate(225 16 16)"/>
    <ellipse cx="16" cy="6" rx="2" ry="7" fill="url(#petalGradient)" transform="rotate(270 16 16)"/>
    <ellipse cx="16" cy="6" rx="2" ry="7" fill="url(#petalGradient)" transform="rotate(315 16 16)"/>
  </g>
  
  <!-- Inner petals (smaller, 8 petals) -->
  <g>
    <ellipse cx="16" cy="8" rx="1.5" ry="5" fill="rgba(129,199,132,0.7)" transform="rotate(22.5 16 16)"/>
    <ellipse cx="16" cy="8" rx="1.5" ry="5" fill="rgba(129,199,132,0.7)" transform="rotate(67.5 16 16)"/>
    <ellipse cx="16" cy="8" rx="1.5" ry="5" fill="rgba(129,199,132,0.7)" transform="rotate(112.5 16 16)"/>
    <ellipse cx="16" cy="8" rx="1.5" ry="5" fill="rgba(129,199,132,0.7)" transform="rotate(157.5 16 16)"/>
    <ellipse cx="16" cy="8" rx="1.5" ry="5" fill="rgba(129,199,132,0.7)" transform="rotate(202.5 16 16)"/>
    <ellipse cx="16" cy="8" rx="1.5" ry="5" fill="rgba(129,199,132,0.7)" transform="rotate(247.5 16 16)"/>
    <ellipse cx="16" cy="8" rx="1.5" ry="5" fill="rgba(129,199,132,0.7)" transform="rotate(292.5 16 16)"/>
    <ellipse cx="16" cy="8" rx="1.5" ry="5" fill="rgba(129,199,132,0.7)" transform="rotate(337.5 16 16)"/>
  </g>
  
  <!-- Center circle with timer symbol -->
  <circle cx="16" cy="16" r="4" fill="url(#centerGradient)" stroke="#81c784" stroke-width="1"/>
  
  <!-- Timer hands -->
  <line x1="16" y1="16" x2="16" y2="12" stroke="#e8f5e8" stroke-width="1" stroke-linecap="round"/>
  <line x1="16" y1="16" x2="19" y2="16" stroke="#e8f5e8" stroke-width="1" stroke-linecap="round"/>
  
  <!-- Center dot -->
  <circle cx="16" cy="16" r="0.5" fill="#e8f5e8"/>
</svg> 