<svg width="120" height="120" viewBox="0 0 120 120" xmlns="http://www.w3.org/2000/svg">
  <defs>
    <!-- Gradient for the lotus petals -->
    <linearGradient id="petalGradient" x1="0%" y1="0%" x2="100%" y2="100%">
      <stop offset="0%" style="stop-color:#81c784;stop-opacity:1" />
      <stop offset="100%" style="stop-color:#4caf50;stop-opacity:1" />
    </linearGradient>
    
    <!-- Gradient for the center -->
    <radialGradient id="centerGradient" cx="50%" cy="50%" r="50%">
      <stop offset="0%" style="stop-color:#2d5016;stop-opacity:1" />
      <stop offset="100%" style="stop-color:#1a3d1a;stop-opacity:1" />
    </radialGradient>
    
    <!-- Drop shadow filter -->
    <filter id="shadow" x="-20%" y="-20%" width="140%" height="140%">
      <feDropShadow dx="2" dy="2" stdDeviation="3" flood-color="#000000" flood-opacity="0.3"/>
    </filter>
  </defs>
  
  <!-- Background circle -->
  <circle cx="60" cy="60" r="55" fill="rgba(255,255,255,0.1)" stroke="rgba(129,199,132,0.3)" stroke-width="2"/>
  
  <!-- Lotus petals (8 petals) -->
  <g filter="url(#shadow)">
    <!-- Petal 1 -->
    <ellipse cx="60" cy="20" rx="8" ry="25" fill="url(#petalGradient)" transform="rotate(0 60 60)"/>
    <!-- Petal 2 -->
    <ellipse cx="60" cy="20" rx="8" ry="25" fill="url(#petalGradient)" transform="rotate(45 60 60)"/>
    <!-- Petal 3 -->
    <ellipse cx="60" cy="20" rx="8" ry="25" fill="url(#petalGradient)" transform="rotate(90 60 60)"/>
    <!-- Petal 4 -->
    <ellipse cx="60" cy="20" rx="8" ry="25" fill="url(#petalGradient)" transform="rotate(135 60 60)"/>
    <!-- Petal 5 -->
    <ellipse cx="60" cy="20" rx="8" ry="25" fill="url(#petalGradient)" transform="rotate(180 60 60)"/>
    <!-- Petal 6 -->
    <ellipse cx="60" cy="20" rx="8" ry="25" fill="url(#petalGradient)" transform="rotate(225 60 60)"/>
    <!-- Petal 7 -->
    <ellipse cx="60" cy="20" rx="8" ry="25" fill="url(#petalGradient)" transform="rotate(270 60 60)"/>
    <!-- Petal 8 -->
    <ellipse cx="60" cy="20" rx="8" ry="25" fill="url(#petalGradient)" transform="rotate(315 60 60)"/>
  </g>
  
  <!-- Inner petals (smaller, 8 petals) -->
  <g>
    <!-- Inner Petal 1 -->
    <ellipse cx="60" cy="30" rx="6" ry="18" fill="rgba(129,199,132,0.7)" transform="rotate(22.5 60 60)"/>
    <!-- Inner Petal 2 -->
    <ellipse cx="60" cy="30" rx="6" ry="18" fill="rgba(129,199,132,0.7)" transform="rotate(67.5 60 60)"/>
    <!-- Inner Petal 3 -->
    <ellipse cx="60" cy="30" rx="6" ry="18" fill="rgba(129,199,132,0.7)" transform="rotate(112.5 60 60)"/>
    <!-- Inner Petal 4 -->
    <ellipse cx="60" cy="30" rx="6" ry="18" fill="rgba(129,199,132,0.7)" transform="rotate(157.5 60 60)"/>
    <!-- Inner Petal 5 -->
    <ellipse cx="60" cy="30" rx="6" ry="18" fill="rgba(129,199,132,0.7)" transform="rotate(202.5 60 60)"/>
    <!-- Inner Petal 6 -->
    <ellipse cx="60" cy="30" rx="6" ry="18" fill="rgba(129,199,132,0.7)" transform="rotate(247.5 60 60)"/>
    <!-- Inner Petal 7 -->
    <ellipse cx="60" cy="30" rx="6" ry="18" fill="rgba(129,199,132,0.7)" transform="rotate(292.5 60 60)"/>
    <!-- Inner Petal 8 -->
    <ellipse cx="60" cy="30" rx="6" ry="18" fill="rgba(129,199,132,0.7)" transform="rotate(337.5 60 60)"/>
  </g>
  
  <!-- Center circle with timer symbol -->
  <circle cx="60" cy="60" r="15" fill="url(#centerGradient)" stroke="#81c784" stroke-width="2"/>
  
  <!-- Timer hands -->
  <line x1="60" y1="60" x2="60" y2="48" stroke="#e8f5e8" stroke-width="2" stroke-linecap="round"/>
  <line x1="60" y1="60" x2="68" y2="60" stroke="#e8f5e8" stroke-width="2" stroke-linecap="round"/>
  
  <!-- Center dot -->
  <circle cx="60" cy="60" r="2" fill="#e8f5e8"/>
  
  <!-- Subtle glow effect -->
  <circle cx="60" cy="60" r="58" fill="none" stroke="rgba(129,199,132,0.2)" stroke-width="1" opacity="0.6"/>
</svg> 